# xmcd
#
# Track frame offsets:
#	150
#	15197
#	30820
#	47765
#	64827
#	79745
#	90347
#	104050
#	116935
#	133050
#	149745
#
# Disc length: 2146 seconds
#
# Revision: 0
# Processed by: cddbd v1.4PL0 Copyright (c) Steve Scherf et al.
# Submitted via: dBpowerAMP V4.0
#
DISCID=9008600b
DTITLE=Emmylou Harris - Profile II, The Best Of
DYEAR=1900
DGENRE=Country
TTITLE0=Blue Kentucky Girl
TTITLE1=Wayfaring Stranger
TTITLE2=Beneath Still Waters
TTITLE3=Born To Run
TTITLE4=Someone Like You
TTITLE5=Mister Sandman
TTITLE6=Pledging My Love
TTITLE7=I'm Movin' On
TTITLE8=(Lost His Love) On Our Last Date
TTITLE9=Save The Last Dance For Me
TTITLE10=Tennessee Waltz
EXTD=
EXTT0=
EXTT1=
EXTT2=
EXTT3=
EXTT4=
EXTT5=
EXTT6=
EXTT7=
EXTT8=
EXTT9=
EXTT10=
PLAYORDER=
